<svg xmlns="http://www.w3.org/2000/svg" width="36.031" height="41" viewBox="0 0 36.031 41">
  <metadata><?xpacket begin="﻿" id="W5M0MpCehiHzreSzNTczkc9d"?>
<x:xmpmeta xmlns:x="adobe:ns:meta/" x:xmptk="Adobe XMP Core 5.6-c138 79.159824, 2016/09/14-01:09:01        ">
   <rdf:RDF xmlns:rdf="http://www.w3.org/1999/02/22-rdf-syntax-ns#">
      <rdf:Description rdf:about=""/>
   </rdf:RDF>
</x:xmpmeta>
                                                                                                    
                                                                                                    
                                                                                                    
                                                                                                    
                                                                                                    
                                                                                                    
                                                                                                    
                                                                                                    
                                                                                                    
                                                                                                    
                                                                                                    
                                                                                                    
                                                                                                    
                                                                                                    
                                                                                                    
                                                                                                    
                                                                                                    
                                                                                                    
                                                                                                    
                                                                                                    
                           
<?xpacket end="w"?></metadata>
<defs>
    <style>
      .cls-1 {
        fill: #484d52;
        fill-rule: evenodd;
      }
    </style>
  </defs>
  <path id="Form_1" data-name="Form 1" class="cls-1" d="M414.674,979.961c-0.706,4.751-7.289,5.7-7.289,4.156s0.472-10.448-2-11.161-1.529-4.393-2.824-4.752a22.023,22.023,0,0,0-5.132,0c-1.294.359-.354,4.039-2.823,4.752s-2,9.617-2,11.161-6.582.6-7.288-4.156-6.583,6.769-.823,11.4c5.22,4.195,13.91,4.2,15.5,4.166,1.587,0.036,10.278.029,15.5-4.166,5.759-4.63-.117-16.147-0.823-11.4h0ZM394.848,982.6a0.891,0.891,0,1,1,.881-0.89,0.885,0.885,0,0,1-.881.89h0Zm3.171,0.713a0.891,0.891,0,1,1,.881-0.89,0.886,0.886,0,0,1-.881.89h0Zm4.231,0a0.891,0.891,0,1,1,.882-0.89,0.886,0.886,0,0,1-.882.89h0Zm3.175-.713a0.891,0.891,0,1,1,.881-0.89,0.885,0.885,0,0,1-.881.89h0Zm0,0-0.209,21.217c0.159-2.62-.579-4.019-1.431-4.769a2.35,2.35,0,0,0-1.931-1.3,1.883,1.883,0,0,1-1.266,1.751,2,2,0,0,1-.589.105,1.988,1.988,0,0,1-.588-0.105,1.862,1.862,0,0,1-1.207-1.307,1.839,1.839,0,0,1-.058-0.444,2.351,2.351,0,0,0-1.932,1.3c-0.852.75-1.591,2.149-1.432,4.769,0.348,5.79-2.643,4.9-2.643,4.9a6.1,6.1,0,0,0,7.86-4.33,6.1,6.1,0,0,0,7.861,4.33s-2.992.88-2.644-4.9h0Zm0,0" transform="translate(-382 -968)"/>
</svg>
