<svg xmlns="http://www.w3.org/2000/svg" width="37" height="39" viewBox="0 0 37 39">
  <metadata><?xpacket begin="﻿" id="W5M0MpCehiHzreSzNTczkc9d"?>
<x:xmpmeta xmlns:x="adobe:ns:meta/" x:xmptk="Adobe XMP Core 5.6-c138 79.159824, 2016/09/14-01:09:01        ">
   <rdf:RDF xmlns:rdf="http://www.w3.org/1999/02/22-rdf-syntax-ns#">
      <rdf:Description rdf:about=""/>
   </rdf:RDF>
</x:xmpmeta>
                                                                                                    
                                                                                                    
                                                                                                    
                                                                                                    
                                                                                                    
                                                                                                    
                                                                                                    
                                                                                                    
                                                                                                    
                                                                                                    
                                                                                                    
                                                                                                    
                                                                                                    
                                                                                                    
                                                                                                    
                                                                                                    
                                                                                                    
                                                                                                    
                                                                                                    
                                                                                                    
                           
<?xpacket end="w"?></metadata>
<defs>
    <style>
      .cls-1 {
        fill: #484d52;
        fill-rule: evenodd;
      }
    </style>
  </defs>
  <path id="Form_5" data-name="Form 5" class="cls-1" d="M817.925,1002.84L805.2,990.273a3.284,3.284,0,0,0-.378-0.322l2.255-2.341c0.114-.115.222-0.237,0.324-0.359a8.477,8.477,0,0,0,8.9-1.886,8.2,8.2,0,0,0,2.424-6.574,0.715,0.715,0,0,0-.472-0.61,0.728,0.728,0,0,0-.76.168l-4.077,4.024-4.128-1.028-1.17-4.2,4.076-4.024a0.716,0.716,0,0,0,.169-0.751,0.724,0.724,0,0,0-.62-0.469,8.434,8.434,0,0,0-6.654,2.394,8.218,8.218,0,0,0-1.913,8.79c-0.121.1-.245,0.21-0.364,0.327l-3.315,3.145-6.091-6.014a2.323,2.323,0,0,0-.242-0.2c0.073-.124.143-0.251,0.206-0.383,1.289,0.244,3.638-2.228,5.635-4.2l-5.817-5.746c-2.6,2.568-4.5,4.292-4.254,5.565a5.619,5.619,0,0,0-1.5,1.009l-0.821.807a3.416,3.416,0,0,0-.966,1.863c-0.08.089-.16,0.185-0.24,0.285l-0.307.38c-0.008.01-.034,0.046-0.042,0.055l-0.276.383c-0.174.23-.324,0.475-0.472,0.715-0.053.089-.109,0.179-0.164,0.268a0.176,0.176,0,0,0-.024.045l-0.124.228a9.639,9.639,0,0,0-.436.875l-0.022.05a9.056,9.056,0,0,0-.428,1.143l-0.056.172c-0.043.143-.09,0.287-0.131,0.456l-0.114.553a6.451,6.451,0,0,0-.135.988l-0.017.2a5.072,5.072,0,0,0-.02.87c0,0.087.008,0.173,0.012,0.29,0,0.048,0,.093,0,0.141a2.924,2.924,0,0,0,.027.388l0.072,0.446c0.015,0.089.027,0.173,0.039,0.254a3.831,3.831,0,0,0,.112.548l0.3,1.021a0.7,0.7,0,0,0,.715.492,0.687,0.687,0,0,0,.443-0.2,0.668,0.668,0,0,0,.2-0.387l0.152-1.035a3.07,3.07,0,0,1,.085-0.331c0.026-.088.053-0.179,0.073-0.255l0.108-.388a1.016,1.016,0,0,1,.064-0.155c0.021-.048.043-0.1,0.063-0.149,0.036-.081.07-0.164,0.1-0.248a2.949,2.949,0,0,1,.23-0.473c0.041-.073.082-0.142,0.121-0.213a3.7,3.7,0,0,1,.312-0.491,0.092,0.092,0,0,0,.022-0.026l0.259-.354c0.053-.064.114-0.129,0.172-0.191,0.041-.046.082-0.089,0.133-0.149a4.923,4.923,0,0,1,.507-0.494l0.091-.084c0.129-.117.276-0.227,0.434-0.344,0.063-.048.126-0.094,0.189-0.139s0.155-.1.23-0.153a3.948,3.948,0,0,1,.4-0.246l0.308-.173,0.31-.15a3.015,3.015,0,0,1,.314-0.136c0.058-.027.117-0.048,0.17-0.072l0.155-.057c0.067-.024.126-0.046,0.2-0.068l0.083-.016a2.291,2.291,0,0,0,.326.411l6.026,5.947-12.859,12.194c0,0.01-.01.01-0.015,0.02a3.724,3.724,0,0,0-.262,5.47c1.6,1.58,3.795,1.18,5.4-.4,0.007-.01.012-0.01,0.019-0.02l11.345-11.8c0.066,0.077.131,0.155,0.206,0.227l12.722,12.561a3.678,3.678,0,0,0,5.162,0,3.566,3.566,0,0,0,0-5.09h0Zm-31.115,2.81a1.508,1.508,0,0,1-2.134,0,1.471,1.471,0,0,1,0-2.1,1.526,1.526,0,0,1,2.134,0,1.47,1.47,0,0,1,0,2.1h0Zm0,0" transform="translate(-782 -970)"/>
</svg>
