<svg xmlns="http://www.w3.org/2000/svg" width="51" height="34" viewBox="0 0 51 34">
  <metadata><?xpacket begin="﻿" id="W5M0MpCehiHzreSzNTczkc9d"?>
<x:xmpmeta xmlns:x="adobe:ns:meta/" x:xmptk="Adobe XMP Core 5.6-c138 79.159824, 2016/09/14-01:09:01        ">
   <rdf:RDF xmlns:rdf="http://www.w3.org/1999/02/22-rdf-syntax-ns#">
      <rdf:Description rdf:about=""/>
   </rdf:RDF>
</x:xmpmeta>
                                                                                                    
                                                                                                    
                                                                                                    
                                                                                                    
                                                                                                    
                                                                                                    
                                                                                                    
                                                                                                    
                                                                                                    
                                                                                                    
                                                                                                    
                                                                                                    
                                                                                                    
                                                                                                    
                                                                                                    
                                                                                                    
                                                                                                    
                                                                                                    
                                                                                                    
                                                                                                    
                           
<?xpacket end="w"?></metadata>
<defs>
    <style>
      .cls-1 {
        fill: #484d52;
        fill-rule: evenodd;
      }
    </style>
  </defs>
  <path id="Form_4" data-name="Form 4" class="cls-1" d="M38.464,4.717A4.763,4.763,0,1,1,33.7,0a4.745,4.745,0,0,1,4.763,4.721h0Zm0,0M10.833,16.923a2.381,2.381,0,1,1-2.379-2.362,2.37,2.37,0,0,1,2.379,2.362h0Zm0,0M4.286,32.561a65.511,65.511,0,0,0,12.719-1.884,12.105,12.105,0,0,0,20.242-6.621c8.366-3.408,14.8-6.979,13.636-10.659-0.008-.025-0.017-0.053-0.025-0.073-0.393-.94-1.593-1.357-3.891-1.357A67.082,67.082,0,0,0,36.3,13.328a0.87,0.87,0,0,0,.158,1.724c2.813,0.068,5.237.671,5.53,1.157-0.284.639-2.226,1.808-4.864,3.094a12.1,12.1,0,0,0-23.865,2.708,11.867,11.867,0,0,0,1.131,5.038,20.874,20.874,0,0,1-3.567.407A3.954,3.954,0,0,1,9.159,27.2c0.064-.285.478-1.269,3.166-3.118a0.873,0.873,0,0,0-.454-1.607H11.846a1.295,1.295,0,0,0-.227.032c-1.005.245-8.986,2.278-11.1,5.754A3.31,3.31,0,0,0,.084,30.87c0.393,1.518,2.586,1.691,4.2,1.691h0Zm0,0"/>
</svg>
